#!OML:ASF X:\für Bonn\!DataBase\2005_08_12_Daniel\c3d\Daniel.ASF
:FULLY-SPECIFIED
:DEGREES
62
root -13.7697 17.2401 0.212675 -26.7446 82.5307 -397.101
lowerback 21.4273 -0.00160538 6.57643
upperback -0.619083 1.53615 -1.40631
thorax -12.5831 0.236841 -5.85467
lowerneck 5.24494 1.84234 -4.48464
upperneck -3.89078 2.13016 -0.20311
head -2.17745 1.14029 0.629214
rclavicle 4.17448e-015 3.57812e-015
rhumerus 4.36626 24.7515 -92.5901
rradius 67.573
rwrist 3.13147
rhand -33.332 28.5983
rfingers 7.12502
rthumb -6.53472 -1.28085
lclavicle 4.17448e-015 3.57812e-015
lhumerus 3.27888 -14.9485 78.9353
lradius 84.0912
lwrist 20.8309
lhand -16.9076 -16.0757
lfingers 7.12502
lthumb 9.32445 13.6981
rfemur -16.6276 4.33138 24.912
rtibia 46.6021
rfoot -20.1145 -3.92881
rtoes -17.4592
lfemur -16.7339 -0.983909 -18
ltibia 55.9767
lfoot -23.9559 6.82652
ltoes -16.9423
63
root -13.4898 17.4288 0.228717 -26.0669 82.4217 -396.107
lowerback 20.5831 0.0988865 6.61506
upperback -1.14677 1.60806 -1.51042
thorax -12.6974 0.237562 -5.99836
lowerneck 5.68006 1.99015 -4.66936
upperneck -2.604 2.32377 0.232372
head -1.84899 1.20722 0.792072
rclavicle 3.77691e-015 -1.78906e-014
rhumerus 5.83415 26.1468 -91.9516
rradius 69.6262
rwrist 3.88129
rhand -33.4436 29.1125
rfingers 7.12502
rthumb -6.64246 -0.763307
lclavicle 3.77691e-015 -1.78906e-014
lhumerus 5.25115 -15.9837 77.8292
lradius 85.7669
lwrist 19.3044
lhand -17.4053 -16.1708
lfingers 7.12502
lthumb 8.84427 13.6239
rfemur -14.0425 4.70754 24.8428
rtibia 43.5857
rfoot -16.9058 -4.72798
rtoes -16.7302
lfemur -14.753 -0.436887 -17.9545
ltibia 53.8383
lfoot -19.6542 6.2757
ltoes -17.1503
64
root -13.1852 17.6417 0.245314 -25.3909 82.3481 -395.14
lowerback 19.5889 0.189914 6.59592
upperback -1.61718 1.64987 -1.57767
thorax -12.6604 0.240735 -6.0485
lowerneck 5.94782 2.1532 -4.9363
upperneck -1.29333 2.53979 0.686588
head -1.49074 1.28961 0.97466
rclavicle 6.75868e-015 -2.78299e-015
rhumerus 7.26603 27.4063 -91.2235
rradius 71.5491
rwrist 4.18767
rhand -33.4669 29.6503
rfingers 7.12502
rthumb -6.66498 -0.224808
lclavicle 6.75868e-015 -2.78299e-015
lhumerus 7.2474 -16.9421 76.7202
lradius 87.1526
lwrist 17.7291
lhand -18.0275 -16.1747
lfingers 7.12502
lthumb 8.24375 13.6445
rfemur -11.4774 5.14439 24.7896
rtibia 40.4515
rfoot -12.9941 -5.91752
rtoes -16.0764
lfemur -12.8709 -0.018573 -17.9272
ltibia 51.7841
lfoot -14.7074 5.76894
ltoes -17.5044
65
root -12.8597 17.8694 0.261336 -24.9463 82.2709 -394.382
lowerback 18.5187 0.293259 6.60197
upperback -2.02056 1.713 -1.63003
thorax -12.4926 0.262829 -6.09587
lowerneck 6.58169 2.35829 -5.46631
upperneck -0.310164 2.77118 1.42581
head -1.31912 1.38211 1.29139
rclavicle -2.27608e-014 -1.74931e-014
rhumerus 8.54941 28.4022 -90.5845
rradius 73.373
rwrist 4.12947
rhand -33.4464 30.234
rfingers 7.12502
rthumb -6.64519 0.358261
lclavicle -2.27608e-014 -1.74931e-014
lhumerus 9.25597 -17.8766 75.6983
lradius 88.5828
lwrist 16.2379
lhand -18.559 -15.8992
lfingers 7.12502
lthumb 7.73079 13.9394
rfemur -8.96765 5.7095 24.7918
rtibia 37.3776
rfoot -8.45602 -7.52056
rtoes -14.9392
lfemur -11.0823 0.324871 -17.8767
ltibia 49.9655
lfoot -9.4488 5.24893
ltoes -17.1697
66
root -12.5261 18.1039 0.276681 -24.4396 82.1846 -393.573
lowerback 17.4346 0.416584 6.56589
upperback -2.37805 1.79897 -1.64523
thorax -12.2566 0.306367 -6.07938
lowerneck 7.04207 2.45774 -5.72162
upperneck 0.67048 2.87857 1.65835
head -1.09886 1.42355 1.40443
rclavicle -4.09496e-014 1.19271e-014
rhumerus 9.83174 29.3165 -89.8293
rradius 75.1115
rwrist 3.5611
rhand -33.2466 30.782
rfingers 7.12502
rthumb -6.45227 0.900237
lclavicle -4.09496e-014 1.19271e-014
lhumerus 11.388 -18.7763 74.6716
lradius 89.93
lwrist 15.2182
lhand -18.9627 -15.4577
lfingers 7.12502
lthumb 7.34112 14.3949
rfemur -6.62262 6.44539 24.8176
rtibia 34.5033
rfoot -3.69456 -9.41484
rtoes -13.0885
lfemur -9.53166 0.676061 -17.8246
ltibia 48.5128
lfoot -4.16265 4.63675
ltoes -16.3237
67
root -12.1976 18.337 0.291059 -23.9079 82.1144 -392.714
lowerback 16.4748 0.532114 6.49205
upperback -2.69422 1.87798 -1.65533
thorax -12.0441 0.350568 -6.03617
lowerneck 7.4221 2.51278 -5.82806
upperneck 1.563 2.94094 1.72098
head -0.884931 1.44745 1.43918
rclavicle 2.89232e-014 -7.95139e-015
rhumerus 11.3434 30.3139 -88.8228
rradius 76.5131
rwrist 2.39898
rhand -33.1274 31.2921
rfingers 7.12502
rthumb -6.33718 1.40694
lclavicle 2.89232e-014 -7.95139e-015
lhumerus 13.617 -19.6259 73.6447
lradius 91.0779
lwrist 14.5821
lhand -19.3003 -15.104
lfingers 7.12502
lthumb 7.01523 14.7597
rfemur -4.50465 7.26815 24.8849
rtibia 32.0346
rfoot 1.19067 -11.5236
rtoes -10.915
lfemur -8.24661 0.948748 -17.7968
ltibia 47.5486
lfoot 1.03757 3.82994
ltoes -15.5729
68
root -11.8857 18.566 0.303806 -23.5314 82.0439 -392.023
lowerback 15.6865 0.61968 6.41288
upperback -2.9803 1.93377 -1.65341
thorax -11.8996 0.382865 -5.97625
lowerneck 7.66288 2.52946 -5.76963
upperneck 2.32903 2.97276 1.58131
head -0.678858 1.46145 1.38234
rclavicle 4.77083e-015 -5.56597e-015
rhumerus 13.1388 31.3723 -87.62
rradius 77.4737
rwrist 0.832543
rhand -33.0659 31.6881
rfingers 7.12502
rthumb -6.27782 1.80109
lclavicle 4.77083e-015 -5.56597e-015
lhumerus 15.8058 -20.3521 72.6395
lradius 92.3015
lwrist 14.3991
lhand -19.4347 -14.8152
lfingers 7.12502
lthumb 6.88551 15.0528
rfemur -2.80851 8.07922 25.0145
rtibia 30.1372
rfoot 6.17252 -13.6963
rtoes -8.31578
lfemur -7.31158 1.14529 -17.7637
ltibia 47.1065
lfoot 5.24551 2.82804
ltoes -15.8354
69
root -11.5818 18.7942 0.315484 -23.1076 81.992 -391.259
lowerback 14.9959 0.706961 6.28509
upperback -3.21231 1.98852 -1.63761
thorax -11.7509 0.420847 -5.87474
lowerneck 7.85463 2.51833 -5.68969
upperneck 2.96653 2.97307 1.37882
head -0.50295 1.46201 1.30342
rclavicle -3.97569e-016 -1.03368e-014
rhumerus 14.9623 32.3445 -86.2857
rradius 78.3659
rwrist -0.915492
rhand -32.8803 31.9265
rfingers 7.12502
rthumb -6.09869 2.0343
lclavicle -3.97569e-016 -1.03368e-014
lhumerus 17.9747 -20.9892 71.678
lradius 93.4826
lwrist 14.478
lhand -19.3851 -14.6746
lfingers 7.12502
lthumb 6.93346 15.1918
rfemur -1.53195 8.70766 25.168
rtibia 28.9085
rfoot 11.1703 -15.3568
rtoes -7.06322
lfemur -6.56255 1.25221 -17.7792
ltibia 47.1161
lfoot 8.47969 1.74201
ltoes -16.2026
70
root -11.278 19.016 0.325832 -22.9589 81.9199 -390.756
lowerback 14.3169 0.776359 6.22992
upperback -3.37467 2.03224 -1.6384
thorax -11.5277 0.453315 -5.8284
lowerneck 8.04144 2.49542 -5.57692
upperneck 3.36571 2.9571 1.15912
head -0.400528 1.45653 1.21373
rclavicle 1.22253e-014 1.90833e-014
rhumerus 16.6767 33.141 -85.0951
rradius 79.4897
rwrist -2.5885
rhand -32.4441 31.7128
rfingers 7.12502
rthumb -5.6775 1.8089
lclavicle 1.22253e-014 1.90833e-014
lhumerus 19.9653 -21.4486 70.8838
lradius 94.8912
lwrist 14.7414
lhand -18.9643 -14.6245
lfingers 7.12502
lthumb 7.33964 15.2282
rfemur -0.63987 9.12608 25.3777
rtibia 28.4112
rfoot 15.7069 -16.0545
rtoes -7.76422
lfemur -5.93529 1.29962 -17.7822
ltibia 47.5352
lfoot 10.9717 0.646766
ltoes -15.1274
71
root -10.9793 19.2202 0.333815 -22.6936 81.8551 -390.138
lowerback 13.65 0.866378 6.18657
upperback -3.45097 2.10328 -1.65507
thorax -11.2085 0.503964 -5.80947
lowerneck 8.2541 2.43822 -5.46913
upperneck 3.46204 2.886 0.936202
head -0.396484 1.42553 1.12479
rclavicle 3.47873e-016 1.82882e-014
rhumerus 18.2841 33.6313 -84.0255
rradius 80.9584
rwrist -3.88968
rhand -31.7616 30.9559
rfingers 7.12502
rthumb -5.01852 1.0353
lclavicle 3.47873e-016 1.82882e-014
lhumerus 21.82 -21.82 70.2745
lradius 96.4002
lwrist 14.9627
lhand -18.3679 -14.7919
lfingers 7.12502
lthumb 7.91527 15.0399
rfemur -0.132905 9.42113 25.5704
rtibia 28.6448
rfoot 19.114 -15.855
rtoes -10.0695
lfemur -5.47444 1.34938 -17.818
ltibia 48.3394
lfoot 12.7247 -0.37431
ltoes -13.042
72
root -10.6945 19.3914 0.33879 -22.442 81.7875 -389.508
lowerback 13.0792 0.941976 6.1593
upperback -3.46721 2.16289 -1.67043
thorax -10.8797 0.549812 -5.79714
lowerneck 8.57461 2.39673 -5.43421
upperneck 3.36921 2.81781 0.77627
head -0.473147 1.39641 1.06714
rclavicle 8.15017e-015 -7.95139e-016
rhumerus 19.7313 33.9532 -83.2159
rradius 82.5062
rwrist -4.7129
rhand -30.9349 30.0537
rfingers 7.12502
rthumb -4.22032 0.115736
lclavicle 8.15017e-015 -7.95139e-016
lhumerus 23.6811 -22.0909 69.7224
lradius 97.5285
lwrist 15.2458
lhand -17.7089 -15.3349
lfingers 7.12502
lthumb 8.55125 14.472
rfemur 0.0590796 9.48575 25.7243
rtibia 29.5012
rfoot 21.6798 -14.9738
rtoes -10.3291
lfemur -5.16417 1.47486 -17.8493
ltibia 49.5156
lfoot 13.6348 -1.28522
ltoes -11.4694
73
root -10.424 19.5361 0.341869 -22.172 81.7524 -388.837
lowerback 12.6134 0.99633 6.12221
upperback -3.43796 2.19756 -1.68901
thorax -10.5663 0.584333 -5.78024
lowerneck 8.94794 2.37401 -5.44415
upperneck 3.17168 2.76346 0.666806
head -0.594553 1.37435 1.03241
rclavicle 1.80894e-014 1.03368e-014
rhumerus 21.0635 34.198 -82.5729
rradius 84.0255
rwrist -5.06359
rhand -30.1872 29.225
rfingers 7.12502
rthumb -3.49825 -0.725996
lclavicle 1.80894e-014 1.03368e-014
lhumerus 25.498 -22.3289 69.1463
lradius 98.3468
lwrist 15.6266
lhand -17.1559 -16.1332
lfingers 7.12502
lthumb 9.08494 13.6511
rfemur 0.00882446 9.42566 25.8495
rtibia 30.8279
rfoot 23.3746 -13.7282
rtoes -10.4871
lfemur -5.06575 1.49754 -17.9311
ltibia 51.0172
lfoot 14.4815 -2.02863
ltoes -10.2299
74
root -10.1634 19.67 0.342939 -22.0686 81.7 -388.327
lowerback 12.2455 1.04666 6.13501
upperback -3.36818 2.23976 -1.71219
thorax -10.2634 0.619184 -5.8012
lowerneck 9.08488 2.36634 -5.48932
upperneck 3.15711 2.74273 0.638254
head -0.621761 1.36522 1.03072
rclavicle -1.22253e-014 1.11319e-014
rhumerus 22.3083 34.3178 -82.0332
rradius 85.4074
rwrist -5.14062
rhand -29.4655 28.5643
rfingers 7.12502
rthumb -2.80123 -1.39705
lclavicle -1.22253e-014 1.11319e-014
lhumerus 27.2253 -22.5862 68.5886
lradius 98.9136
lwrist 15.8816
lhand -16.8258 -16.9708
lfingers 7.12502
lthumb 9.4034 12.7995
rfemur -0.234276 9.22936 25.9667
rtibia 32.4616
rfoot 24.3622 -12.4024
rtoes -9.87142
lfemur -5.17057 1.36434 -18.047
ltibia 52.7189
lfoot 15.0861 -2.48217
ltoes -8.52506
75
root -9.91568 19.7937 0.343727 -21.9442 81.6432 -387.761
lowerback 12.0678 1.09259 6.12951
upperback -3.28208 2.28514 -1.72727
thorax -10.0554 0.652713 -5.81166
lowerneck 8.96101 2.3589 -5.64515
upperneck 3.40746 2.73387 0.711236
head -0.525336 1.3563 1.08253
rclavicle -2.37051e-014 -7.15625e-015
rhumerus 23.4309 34.4093 -81.5672
rradius 86.5587
rwrist -4.88273
rhand -29.0043 28.361
rfingers 7.12502
rthumb -2.35584 -1.60573
lclavicle -2.37051e-014 -7.15625e-015
lhumerus 28.7903 -22.8926 68.0475
lradius 99.321
lwrist 16.1919
lhand -16.6752 -17.6961
lfingers 7.12502
lthumb 9.54877 12.0676
rfemur -0.588883 8.93594 26.0661
rtibia 34.2259
rfoot 24.869 -11.0459
rtoes -8.11194
lfemur -5.35363 1.20753 -18.1865
ltibia 54.4954
lfoot 15.4694 -2.80417
ltoes -7.08772
76
root -9.67951 19.9117 0.343712 -22.0505 81.604 -387.403
lowerback 12.0687 1.12053 6.15779
upperback -3.16963 2.32262 -1.73644
thorax -9.92396 0.67735 -5.84098
lowerneck 8.7799 2.36095 -5.89611
upperneck 3.60577 2.72958 0.872195
head -0.439663 1.34748 1.17916
rclavicle 7.20594e-015 1.59028e-014
rhumerus 24.4032 34.4635 -81.1628
rradius 87.5644
rwrist -4.53735
rhand -28.7105 28.4221
rfingers 7.12502
rthumb -2.07214 -1.54761
lclavicle 7.20594e-015 1.59028e-014
lhumerus 30.1141 -23.3051 67.5844
lradius 99.6803
lwrist 16.4375
lhand -16.7962 -18.2023
lfingers 7.12502
lthumb 9.43199 11.5667
rfemur -0.980429 8.49999 26.1581
rtibia 35.9361
rfoot 24.7085 -9.77425
rtoes -7.0967
lfemur -5.59564 0.981149 -18.3283
ltibia 56.2426
lfoot 15.6362 -3.03793
ltoes -5.51967
